<?xml version="1.0" encoding="UTF-8"?><svg id="Capa_1" xmlns="http://www.w3.org/2000/svg" viewBox="0 0 130.72 77"><defs><style>.cls-1{fill:#fe5000;}.cls-2{fill:#54585a;}</style></defs><path class="cls-1" d="m22.71,37.64c0,13.18,4.98,17.76,13.9,17.76,1.77,0,4.1-.16,6.03-.72v-11.37h-9.24l.72-11.25h21.05v31.05c-7.47,2.65-13.9,3.54-19.13,3.54-15.19,0-26.44-7.55-26.44-29.01s11.97-29.01,26.76-29.01c5.3,0,11.09.8,16.31,2.25l-2.17,11.09c-4.42-1.29-8.68-2.17-13.26-2.17-8.84,0-14.55,4.66-14.55,17.84ZM59.96,9.43h24.35c10.12,0,15.75,6.51,15.75,14.22,0,6.27-2.97,10.29-7.71,13.5,6.59,3.54,9.56,8.44,9.56,14.22,0,10.29-8.76,15.27-23.14,15.27-4.82,0-12.7-.64-18.8-1.69V9.43Zm23.79,22.66c2.65-1.93,3.78-4.26,3.78-6.67,0-2.73-1.85-4.82-5.22-4.82h-9.8v11.49h11.25Zm-11.25,11.25v11.49c2.17.32,5.06.56,7.15.56,6.27,0,9.72-2.25,9.72-5.79,0-2.41-1.45-4.66-4.02-6.27h-12.86Z"/><path class="cls-2" d="m120.2,62.01v2.9h-13.04v-8.62l2.58.15v5.57h3.29v-4.66l2.58.17v4.49h4.59Zm-13.22-12.11c0-3.51,1.69-6.04,6.7-6.04s6.7,2.53,6.7,6.04-1.71,6.05-6.7,6.05-6.7-2.53-6.7-6.05Zm10.81,0c0-1.86-1.04-3.01-4.1-3.01s-4.12,1.15-4.12,3.01,1.06,3.03,4.12,3.03,4.1-1.15,4.1-3.03Zm-10.81-12.69c0-3.51,1.69-6.04,6.7-6.04s6.7,2.53,6.7,6.04-1.71,6.05-6.7,6.05-6.7-2.53-6.7-6.05Zm10.81,0c0-1.86-1.04-3.01-4.1-3.01s-4.12,1.15-4.12,3.01,1.06,3.03,4.12,3.03,4.1-1.15,4.1-3.03Zm-4.09-18.07c4.48,0,6.69,2.45,6.69,6.65,0,1.32-.15,2.71-.52,4.23h-12.7v-4.88c0-3.7,1.99-6,6.54-6Zm-3.96,7.99h7.91c.11-.56.13-1.15.13-1.62,0-2.14-1.37-3.34-4.03-3.34-2.82,0-4.01,1.15-4.01,3.01v1.95Zm7.39-9.62c.39-1.15.65-2.77.65-3.92s-.74-1.69-1.62-1.58c-1.34.17-1.04,6.43-5.29,6.43-2.54,0-3.9-1.63-3.9-4.96,0-1.3.22-2.84.67-4.05l2.56.5c-.37,1.13-.65,2.75-.65,3.9s.74,1.65,1.58,1.54c1.34-.17,1.04-6.41,5.31-6.41,2.56,0,3.94,1.63,3.94,4.98,0,1.32-.24,2.86-.69,4.07l-2.56-.5Z"/></svg>